<?xml version="1.0" standalone="no"?>
<!DOCTYPE svg PUBLIC "-//W3C//DTD SVG 20010904//EN"
 "http://www.w3.org/TR/2001/REC-SVG-20010904/DTD/svg10.dtd">
<svg version="1.0" xmlns="http://www.w3.org/2000/svg"
 width="460.000000pt" height="408.000000pt" viewBox="0 0 460.000000 408.000000"
 preserveAspectRatio="xMidYMid meet">

<g transform="translate(0.000000,408.000000) scale(0.100000,-0.100000)"
fill="#000000" stroke="none">
<path d="M2915 2939 c-376 -270 -617 -437 -627 -435 -10 2 -198 115 -418 251
-221 136 -403 245 -404 243 -3 -3 86 -148 434 -714 l68 -111 -410 -574 c-468
-655 -471 -659 -464 -659 3 0 276 194 608 432 332 237 610 433 618 434 8 2
197 -108 420 -245 223 -136 407 -247 409 -245 2 2 -108 184 -245 406 -136 222
-248 410 -248 418 0 8 194 285 430 615 427 596 448 626 442 624 -2 0 -277
-198 -613 -440z"/>
<path d="M2115 3105 c-152 -33 -355 -128 -355 -166 0 -28 23 -24 89 15 114 67
246 108 386 121 137 13 353 -28 479 -92 46 -24 76 -25 76 -3 0 28 -176 102
-298 125 -94 18 -295 18 -377 0z"/>
<path d="M1500 2690 c-38 -53 -108 -213 -129 -294 -55 -211 -27 -475 71 -669
21 -42 34 -57 46 -55 22 5 20 18 -22 118 -54 130 -68 193 -73 330 -8 191 32
355 122 504 38 64 42 81 20 89 -9 4 -22 -5 -35 -23z"/>
<path d="M3106 2642 c-3 -5 13 -46 34 -93 65 -140 84 -230 84 -399 -1 -177
-19 -255 -97 -410 -28 -58 -52 -109 -52 -115 0 -5 8 -10 19 -10 49 0 157 264
176 434 20 179 -14 368 -97 534 -30 61 -53 81 -67 59z"/>
<path d="M2770 1359 c-111 -73 -288 -120 -456 -121 -158 0 -286 29 -424 97
-66 33 -90 35 -90 9 0 -20 141 -86 255 -121 81 -24 105 -27 250 -27 194 -1
274 17 435 97 82 40 106 57 108 75 5 31 -22 28 -78 -9z"/>
<path d="M1140 678 c-51 -35 -70 -69 -77 -130 -4 -45 -1 -65 16 -100 56 -116
225 -118 281 -3 58 119 -17 255 -140 255 -32 0 -57 -7 -80 -22z m136 -61 c22
-19 28 -34 32 -78 4 -49 1 -59 -23 -87 -54 -64 -140 -32 -152 57 -14 103 73
168 143 108z"/>
<path d="M2270 678 c-59 -41 -75 -71 -75 -148 0 -54 4 -74 21 -97 69 -94 200
-99 254 -10 29 47 26 67 -10 67 -23 0 -33 -6 -40 -24 -19 -51 -91 -62 -130
-21 -51 54 -29 175 36 191 36 9 77 -6 89 -34 7 -16 18 -22 43 -22 32 0 34 2
27 28 -20 82 -139 121 -215 70z"/>
<path d="M2860 683 c-69 -36 -103 -121 -81 -203 22 -82 82 -125 166 -118 93 8
145 68 145 168 0 100 -52 161 -144 167 -36 3 -62 -1 -86 -14z m131 -72 c24
-24 29 -38 29 -76 0 -51 -20 -99 -45 -109 -9 -3 -32 -6 -50 -6 -60 0 -99 81
-75 154 23 70 90 87 141 37z"/>
<path d="M380 530 l0 -160 125 0 125 0 0 25 c0 24 -2 24 -87 27 l-88 3 0 40 0
40 78 3 c74 3 77 4 77 27 0 24 -2 25 -80 25 l-80 0 0 35 0 34 88 3 c87 3 87 3
90 31 l3 27 -125 0 -126 0 0 -160z"/>
<path d="M700 686 c0 -3 23 -75 50 -160 l51 -156 42 0 43 0 48 148 c27 81 51
153 54 160 3 10 -5 13 -34 10 l-38 -3 -33 -104 c-18 -57 -35 -106 -37 -108 -2
-2 -21 46 -41 106 l-37 111 -34 0 c-19 0 -34 -2 -34 -4z"/>
<path d="M1489 688 c0 -2 -1 -73 -2 -158 l-2 -155 118 -3 117 -3 0 26 c0 25
-1 25 -80 25 l-80 0 0 135 0 135 -35 0 c-19 0 -35 -1 -36 -2z"/>
<path d="M1810 568 c0 -104 3 -128 19 -154 39 -65 166 -73 224 -15 l32 31 3
130 4 130 -36 0 -36 0 0 -113 c0 -135 -10 -157 -69 -157 -63 0 -71 18 -71 153
l0 117 -35 0 -35 0 0 -122z"/>
<path d="M2600 530 l0 -160 35 0 35 0 0 160 0 160 -35 0 -35 0 0 -160z"/>
<path d="M3200 530 l0 -160 30 0 29 0 3 108 3 107 66 -105 c62 -99 68 -105
102 -108 l37 -3 0 160 0 161 -30 0 -30 0 0 -107 c0 -125 3 -125 -84 15 -55 87
-60 92 -92 92 l-34 0 0 -160z"/>
<path d="M3671 668 c-92 -240 -111 -292 -111 -295 0 -1 15 -3 34 -3 31 0 36 4
47 35 13 35 13 35 75 35 l62 0 12 -35 c10 -31 16 -35 46 -35 19 0 34 3 34 6 0
4 -26 76 -57 160 l-58 154 -38 0 c-30 0 -39 -5 -46 -22z m67 -118 l21 -60 -40
0 c-24 0 -39 5 -39 13 0 12 32 107 36 107 1 0 11 -27 22 -60z"/>
<path d="M3955 663 c10 -16 33 -50 51 -77 l33 -49 -48 -71 c-26 -39 -51 -77
-55 -83 -5 -10 3 -13 32 -13 37 0 42 4 72 50 18 28 35 50 39 50 4 0 20 -22 36
-50 29 -47 32 -50 73 -50 32 0 41 3 36 13 -4 6 -29 44 -55 83 l-48 71 33 49
c18 27 41 61 51 77 l17 27 -38 0 c-36 0 -41 -4 -71 -52 l-31 -52 -33 52 c-30
49 -35 52 -72 52 l-39 0 17 -27z"/>
</g>
</svg>
